HIERARCHY
ROOT Hips
{
	OFFSET 0.00000 0.00000 0.00000
	CHANNELS 6 Xposition Yposition Zposition Zrotation Yrotation Xrotation 
	JOINT LHipJoint
	{
		OFFSET 0 0 0
		CHANNELS 3 Zrotation Yrotation Xrotation
		JOINT LeftUpLeg
		{
			OFFSET 1.55766 -1.60504 1.11378
			CHANNELS 3 Zrotation Yrotation Xrotation
			JOINT LeftLeg
			{
				OFFSET 2.29047 -6.29302 0.00000
				CHANNELS 3 Zrotation Yrotation Xrotation
				JOINT LeftFoot
				{
					OFFSET 2.52265 -6.93093 0.00000
					CHANNELS 3 Zrotation Yrotation Xrotation
					JOINT LeftToeBase
					{
						OFFSET 0.17633 -0.48446 2.02656
						CHANNELS 3 Zrotation Yrotation Xrotation
						End Site
						{
							OFFSET 0.00000 -0.00000 1.04989
						}
					}
				}
			}
		}
	}
	JOINT RHipJoint
	{
		OFFSET 0 0 0
		CHANNELS 3 Zrotation Yrotation Xrotation
		JOINT RightUpLeg
		{
			OFFSET -1.48599 -1.60504 1.11378
			CHANNELS 3 Zrotation Yrotation Xrotation
			JOINT RightLeg
			{
				OFFSET -2.27280 -6.24448 0.00000
				CHANNELS 3 Zrotation Yrotation Xrotation
				JOINT RightFoot
				{
					OFFSET -2.50834 -6.89161 0.00000
					CHANNELS 3 Zrotation Yrotation Xrotation
					JOINT RightToeBase
					{
						OFFSET -0.26967 -0.74090 2.08741
						CHANNELS 3 Zrotation Yrotation Xrotation
						End Site
						{
							OFFSET -0.00000 -0.00000 1.10614
						}
					}
				}
			}
		}
	}
	JOINT LowerBack
	{
		OFFSET 0 0 0
		CHANNELS 3 Zrotation Yrotation Xrotation
		JOINT Spine
		{
			OFFSET 0.06481 2.02437 -0.08472
			CHANNELS 3 Zrotation Yrotation Xrotation
			JOINT Spine1
			{
				OFFSET 0.00015 1.96711 0.18069
				CHANNELS 3 Zrotation Yrotation Xrotation
				JOINT Neck
				{
					OFFSET 0 0 0
					CHANNELS 3 Zrotation Yrotation Xrotation
					JOINT Neck1
					{
						OFFSET -0.29961 1.68293 -0.13041
						CHANNELS 3 Zrotation Yrotation Xrotation
						JOINT Head
						{
							OFFSET 0.59697 1.61501 -0.14669
							CHANNELS 3 Zrotation Yrotation Xrotation
							End Site
							{
								OFFSET 0.22973 1.74906 -0.10148
							}
						}
					}
				}
				JOINT LeftShoulder
				{
					OFFSET 0 0 0
					CHANNELS 3 Zrotation Yrotation Xrotation
					JOINT LeftArm
					{
						OFFSET 3.37968 1.02893 0.31147
						CHANNELS 3 Zrotation Yrotation Xrotation
						JOINT LeftForeArm
						{
							OFFSET 5.19807 -0.00000 -0.00000
							CHANNELS 3 Zrotation Yrotation Xrotation
							JOINT LeftHand
							{
								OFFSET 3.09370 -0.00000 -0.00000
								CHANNELS 3 Zrotation Yrotation Xrotation
								JOINT LeftFingerBase
								{
									OFFSET 0 0 0
									CHANNELS 3 Zrotation Yrotation Xrotation
									JOINT LeftHandIndex1
									{
										OFFSET 0.67263 -0.00000 -0.00000
										CHANNELS 3 Zrotation Yrotation Xrotation
										End Site
										{
											OFFSET 0.54229 -0.00000 -0.00000
										}
									}
								}
								JOINT LThumb
								{
									OFFSET 0 0 0
									CHANNELS 3 Zrotation Yrotation Xrotation
									End Site
									{
										OFFSET 0.55057 -0.00000 0.55057
									}
								}
							}
						}
					}
				}
				JOINT RightShoulder
				{
					OFFSET 0 0 0
					CHANNELS 3 Zrotation Yrotation Xrotation
					JOINT RightArm
					{
						OFFSET -3.38254 0.96355 -0.16120
						CHANNELS 3 Zrotation Yrotation Xrotation
						JOINT RightForeArm
						{
							OFFSET -5.45222 -0.00000 -0.00000
							CHANNELS 3 Zrotation Yrotation Xrotation
							JOINT RightHand
							{
								OFFSET -3.01284 -0.00000 -0.00000
								CHANNELS 3 Zrotation Yrotation Xrotation
								JOINT RightFingerBase
								{
									OFFSET 0 0 0
									CHANNELS 3 Zrotation Yrotation Xrotation
									JOINT RightHandIndex1
									{
										OFFSET -0.62230 -0.00000 -0.00000
										CHANNELS 3 Zrotation Yrotation Xrotation
										End Site
										{
											OFFSET -0.50171 -0.00000 -0.00000
										}
									}
								}
								JOINT RThumb
								{
									OFFSET 0 0 0
									CHANNELS 3 Zrotation Yrotation Xrotation
									End Site
									{
										OFFSET -0.50937 -0.00000 0.50937
									}
								}
							}
						}
					}
				}
			}
		}
	}
}
MOTION
Frames: 11
Frame Time: .0083333
3.0066 1.2052 18.3259 0.3456 -5.2751 -101.6850 0.0000 0.0000 0.0000 -11.8919 7.1563 2.5989 2.2931 9.4517 27.2187 -0.0425 -17.8150 24.8625 0.4851 -4.4661 -12.3918 0.0000 0.0000 0.0000 20.4248 -7.5200 3.2422 -2.1315 -9.1347 26.2177 -0.8261 12.5339 25.8872 -0.0972 2.0110 -5.5360 1.3920 0.0580 12.9065 -1.9863 0.1636 2.4287 -2.8986 0.0508 -4.6714 -29.8424 -9.9783 15.9981 44.4719 -21.4562 -5.4007 22.5104 -12.6864 5.3923 0.0000 0.0000 0.0000 -73.2742 25.2191 33.5810 15.9833 -25.4980 -3.6388 -0.0000 -0.0000 10.4128 -5.1737 -13.5485 1.2152 -7.1250 0.0000 -0.0000 -21.9587 16.8957 15.8464 0.0000 0.0000 0.0000 77.1002 -14.1488 -11.8796 -10.2575 17.1413 -1.5500 0.0000 0.0000 56.8181 -9.1195 -3.4555 0.5543 7.1250 -0.0000 -0.0000 14.1814 -33.2274 4.2027
3.0064 1.2050 18.3254 0.3402 -5.2723 -101.6580 0.0000 0.0000 0.0000 -11.8983 7.1494 2.5722 2.2917 9.4490 27.2102 -0.0391 -17.8072 24.8808 0.4840 -4.4609 -12.3772 0.0000 0.0000 0.0000 20.4271 -7.5056 3.2092 -2.1336 -9.1391 26.2314 -0.8576 12.3593 25.9670 -0.0894 1.9289 -5.3093 1.3923 0.0590 12.8841 -1.9911 0.1646 2.4198 -2.9038 0.0512 -4.6684 -29.8363 -9.9847 15.9898 44.4613 -21.4659 -5.3863 22.4961 -12.6892 5.3986 0.0000 -0.0000 0.0000 -73.2620 25.2188 33.5953 15.9809 -25.4948 -3.6377 -0.0000 -0.0000 10.4135 -5.1681 -13.5549 1.2144 -7.1250 0.0000 -0.0000 -21.9544 16.8899 15.8458 0.0000 -0.0000 0.0000 77.1096 -14.1519 -11.8919 -10.2564 17.1397 -1.5497 0.0000 0.0000 56.8328 -9.0413 -3.4489 0.5485 7.1250 -0.0000 -0.0000 14.2425 -33.2178 4.2252
3.0061 1.2047 18.3248 0.3363 -5.2853 -101.6040 0.0000 0.0000 0.0000 -11.8903 7.1336 2.5120 2.2905 9.4465 27.2024 -0.0286 -17.7737 24.9258 0.4815 -4.4496 -12.3452 0.0000 0.0000 0.0000 20.4523 -7.4793 3.1455 -2.1359 -9.1436 26.2456 -0.9262 11.9936 26.1583 -0.0757 1.7746 -4.8831 1.4081 0.0593 12.8314 -1.9928 0.1667 2.4050 -2.9144 0.0521 -4.6547 -29.8309 -9.9910 15.9791 44.4562 -21.4766 -5.3720 22.4861 -12.6928 5.4075 0.0000 -0.0000 0.0000 -73.2482 25.2149 33.6065 15.9779 -25.4907 -3.6365 -0.0000 -0.0000 10.4178 -5.1627 -13.5626 1.2138 -7.1250 0.0000 -0.0000 -21.9500 16.8827 15.8458 0.0000 -0.0000 0.0000 77.1225 -14.1511 -11.9043 -10.2539 17.1357 -1.5489 0.0000 0.0000 56.8353 -8.9766 -3.4494 0.5445 7.1250 -0.0000 -0.0000 14.2941 -33.2158 4.2420
3.0059 1.2043 18.3243 0.3325 -5.2804 -101.5650 0.0000 0.0000 0.0000 -11.9022 7.1195 2.4738 2.2888 9.4434 27.1925 -0.0144 -17.7211 24.9772 0.4804 -4.4448 -12.3316 0.0000 0.0000 0.0000 20.4538 -7.4598 3.0980 -2.1384 -9.1487 26.2614 -0.9618 11.8029 26.2581 -0.0691 1.6963 -4.6671 1.4078 0.0616 12.7941 -2.0000 0.1691 2.3949 -2.9219 0.0532 -4.6447 -29.8289 -9.9976 15.9638 44.4525 -21.4919 -5.3484 22.4770 -12.6985 5.4230 0.0000 -0.0000 0.0000 -73.2346 25.2108 33.6166 15.9754 -25.4873 -3.6354 -0.0000 -0.0000 10.4217 -5.1580 -13.5684 1.2132 -7.1250 0.0000 -0.0000 -21.9462 16.8773 15.8455 0.0000 -0.0000 0.0000 77.1345 -14.1480 -11.9150 -10.2490 17.1282 -1.5475 0.0000 0.0000 56.8307 -8.9639 -3.4560 0.5448 7.1250 -0.0000 -0.0000 14.3053 -33.2218 4.2434
3.0058 1.2039 18.3238 0.3298 -5.2637 -101.5310 0.0000 0.0000 0.0000 -11.9277 7.1077 2.4437 2.2865 9.4389 27.1782 0.0064 -17.6412 25.0473 0.4796 -4.4409 -12.3205 0.0000 0.0000 0.0000 20.4401 -7.4431 3.0531 -2.1413 -9.1545 26.2798 -0.9804 11.7072 26.3141 -0.0662 1.6606 -4.5687 1.3996 0.0663 12.7606 -2.0128 0.1735 2.3862 -2.9311 0.0555 -4.6351 -29.8258 -10.0042 15.9499 44.4536 -21.5091 -5.3241 22.4714 -12.7058 5.4403 -0.0000 0.0000 0.0000 -73.2142 25.2064 33.6335 15.9747 -25.4863 -3.6351 -0.0000 -0.0000 10.4212 -5.1568 -13.5712 1.2131 -7.1250 0.0000 -0.0000 -21.9451 16.8747 15.8459 -0.0000 0.0000 0.0000 77.1512 -14.1438 -11.9315 -10.2433 17.1192 -1.5458 0.0000 0.0000 56.8220 -8.9733 -3.4680 0.5473 7.1250 -0.0000 -0.0000 14.2998 -33.2339 4.2374
3.0059 1.2037 18.3235 0.3266 -5.2311 -101.5170 0.0000 0.0000 0.0000 -11.9693 7.1013 2.4409 2.2833 9.4328 27.1588 0.0273 -17.5578 25.1138 0.4795 -4.4407 -12.3200 0.0000 0.0000 0.0000 20.4045 -7.4351 3.0286 -2.1445 -9.1608 26.2995 -0.9662 11.7894 26.2798 -0.0697 1.7034 -4.6865 1.3761 0.0725 12.7475 -2.0295 0.1776 2.3829 -2.9359 0.0579 -4.6312 -29.8227 -10.0092 15.9391 44.4572 -21.5235 -5.3045 22.4691 -12.7123 5.4551 -0.0000 0.0000 0.0000 -73.1949 25.2026 33.6502 15.9750 -25.4868 -3.6352 -0.0000 -0.0000 10.4165 -5.1576 -13.5686 1.2131 -7.1250 0.0000 -0.0000 -21.9459 16.8772 15.8453 -0.0000 0.0000 0.0000 77.1655 -14.1381 -11.9486 -10.2368 17.1091 -1.5439 0.0000 0.0000 56.8131 -8.9914 -3.4779 0.5500 7.1250 -0.0000 -0.0000 14.2870 -33.2443 4.2297
3.0061 1.2035 18.3233 0.3225 -5.1773 -101.5320 0.0000 0.0000 0.0000 -12.0322 7.1035 2.4733 2.2796 9.4257 27.1363 0.0442 -17.4878 25.1636 0.4808 -4.4468 -12.3371 0.0000 0.0000 0.0000 20.3398 -7.4384 3.0338 -2.1476 -9.1670 26.3193 -0.9059 12.1165 26.1151 -0.0821 1.8485 -5.0871 1.3310 0.0801 12.7634 -2.0502 0.1807 2.3863 -2.9328 0.0599 -4.6363 -29.8179 -10.0138 15.9312 44.4567 -21.5351 -5.2873 22.4638 -12.7171 5.4659 0.0000 -0.0000 0.0000 -73.1804 25.2013 33.6627 15.9759 -25.4879 -3.6356 -0.0000 -0.0000 10.4123 -5.1606 -13.5659 1.2136 -7.1250 0.0000 -0.0000 -21.9482 16.8795 15.8460 0.0000 -0.0000 0.0000 77.1751 -14.1331 -11.9645 -10.2315 17.1009 -1.5423 0.0000 0.0000 56.8073 -9.0236 -3.4889 0.5537 7.1250 -0.0000 -0.0000 14.2634 -33.2564 4.2179
3.0062 1.2035 18.3234 0.3178 -5.1284 -101.5660 0.0000 0.0000 0.0000 -12.0848 7.1157 2.5270 2.2759 9.4185 27.1136 0.0376 -17.5120 25.1396 0.4846 -4.4638 -12.3853 0.0000 0.0000 0.0000 20.2788 -7.4485 3.0628 -2.1504 -9.1725 26.3365 -0.8380 12.4735 25.9229 -0.0956 1.9943 -5.4900 1.2903 0.0865 12.7997 -2.0686 0.1831 2.3963 -2.9298 0.0615 -4.6457 -29.8091 -10.0208 15.9218 44.4524 -21.5461 -5.2741 22.4533 -12.7210 5.4740 0.0000 -0.0000 0.0000 -73.1664 25.1976 33.6756 15.9771 -25.4895 -3.6361 -0.0000 -0.0000 10.4058 -5.1666 -13.5627 1.2147 -7.1250 0.0000 -0.0000 -21.9524 16.8826 15.8479 0.0000 -0.0000 0.0000 77.1835 -14.1272 -11.9848 -10.2289 17.0969 -1.5416 0.0000 0.0000 56.8104 -9.0359 -3.4916 0.5549 7.1250 -0.0000 -0.0000 14.2540 -33.2596 4.2139
3.0061 1.2036 18.3236 0.3132 -5.0891 -101.6000 0.0000 0.0000 0.0000 -12.1254 7.1279 2.5775 2.2727 9.4124 27.0941 0.0261 -17.5552 25.0994 0.4868 -4.4737 -12.4132 0.0000 0.0000 0.0000 20.2299 -7.4573 3.0933 -2.1526 -9.1770 26.3506 -0.7829 12.7572 25.7636 -0.1062 2.1016 -5.7865 1.2571 0.0920 12.8341 -2.0827 0.1855 2.4078 -2.9266 0.0631 -4.6524 -29.7976 -10.0311 15.9087 44.4427 -21.5579 -5.2634 22.4361 -12.7241 5.4806 0.0000 0.0000 0.0000 -73.1546 25.1908 33.6893 15.9782 -25.4910 -3.6366 -0.0000 -0.0000 10.3985 -5.1714 -13.5593 1.2156 -7.1250 0.0000 -0.0000 -21.9559 16.8857 15.8492 0.0000 0.0000 0.0000 77.1898 -14.1203 -12.0059 -10.2281 17.0956 -1.5413 0.0000 0.0000 56.8109 -9.0518 -3.4856 0.5549 7.1250 -0.0000 -0.0000 14.2404 -33.2542 4.2116
3.0060 1.2039 18.3236 0.3083 -5.0598 -101.6240 0.0000 0.0000 0.0000 -12.1550 7.1391 2.6130 2.2704 9.4079 27.0797 0.0098 -17.6188 25.0460 0.4898 -4.4874 -12.4521 0.0000 0.0000 0.0000 20.1941 -7.4630 3.1153 -2.1543 -9.1804 26.3611 -0.7457 12.9410 25.6497 -0.1116 2.1540 -5.9314 1.2313 0.0964 12.8573 -2.0917 0.1875 2.4181 -2.9219 0.0645 -4.6543 -29.7876 -10.0448 15.8888 44.4273 -21.5732 -5.2499 22.4122 -12.7277 5.4897 -0.0000 -0.0000 0.0000 -73.1468 25.1816 33.7011 15.9794 -25.4927 -3.6371 -0.0000 -0.0000 10.3925 -5.1763 -13.5594 1.2167 -7.1250 0.0000 -0.0000 -21.9591 16.8857 15.8519 -0.0000 -0.0000 0.0000 77.1920 -14.1127 -12.0202 -10.2276 17.0948 -1.5412 0.0000 0.0000 56.8020 -9.0647 -3.4797 0.5548 7.1250 -0.0000 -0.0000 14.2292 -33.2489 4.2099
3.0057 1.2040 18.3231 0.3047 -5.0636 -101.5980 0.0000 0.0000 0.0000 -12.1522 7.1354 2.5865 2.2687 9.4047 27.0696 -0.0004 -17.6625 25.0176 0.4879 -4.4787 -12.4275 0.0000 0.0000 0.0000 20.2040 -7.4504 3.0838 -2.1556 -9.1830 26.3695 -0.7752 12.7933 25.7380 -0.1045 2.0849 -5.7405 1.2346 0.0979 12.8274 -2.0902 0.1901 2.4178 -2.9222 0.0660 -4.6380 -29.7793 -10.0625 15.8590 44.4100 -21.5928 -5.2342 22.3843 -12.7321 5.5033 0.0000 0.0000 0.0000 -73.1411 25.1660 33.7113 15.9797 -25.4931 -3.6372 -0.0000 -0.0000 10.3894 -5.1784 -13.5612 1.2174 -7.1250 0.0000 -0.0000 -21.9601 16.8840 15.8537 0.0000 0.0000 0.0000 77.1933 -14.1021 -12.0303 -10.2275 17.0947 -1.5412 0.0000 0.0000 56.7826 -9.0782 -3.4725 0.5545 7.1250 -0.0000 -0.0000 14.2172 -33.2425 4.2085
